[h264 @ 0x55b5117f87c0] Reinit context to 848x480, pix_fmt: yuv420p
Input #0, mov,mp4,m4a,3gp,3g2,mj2, from '/var/www/html/project/media/video/original/WhatsApp_Video_2025-03-29_at_18.55.51.mp4':
  Metadata:
    major_brand     : mp42
    minor_version   : 0
    compatible_brands: mp42isom
  Duration: 00:00:15.24, start: 0.000000, bitrate: 1589 kb/s
    Stream #0:0(und): Video: h264 (High), 1 reference frame (avc1 / 0x31637661), yuv420p(tv, smpte170m/bt470bg/smpte170m, left), 848x478 (848x480), 1460 kb/s, 25.07 fps, 25 tbr, 30k tbn, 60k tbc (default)
    Stream #0:1(und): Audio: aac (LC) (mp4a / 0x6134706D), 44100 Hz, stereo, fltp, 125 kb/s (default)
[h264 @ 0x55b5118341c0] Reinit context to 1280x720, pix_fmt: yuv420p
Input #1, mov,mp4,m4a,3gp,3g2,mj2, from '/var/www/html/project/static/images/templates/Codino.mp4':
  Metadata:
    major_brand     : mp42
    minor_version   : 1
    compatible_brands: isommp41mp42
    creation_time   : 2021-07-11T07:02:58.000000Z
  Duration: 00:00:02.00, start: 0.000000, bitrate: 1007 kb/s
    Stream #1:0(ita): Audio: aac (LC) (mp4a / 0x6134706D), 44100 Hz, stereo, fltp, 102 kb/s (default)
    Metadata:
      creation_time   : 2021-07-11T07:02:58.000000Z
      handler_name    : Core Media Audio
    Stream #1:1(und): Video: h264 (High), 1 reference frame (avc1 / 0x31637661), yuv420p(tv, bt709, progressive, left), 1280x720 [SAR 1:1 DAR 16:9], 813 kb/s, 25 fps, 25 tbr, 25k tbn, 50k tbc (default)
    Metadata:
      creation_time   : 2021-07-11T07:02:58.000000Z
      handler_name    : Core Media Video
[Parsed_scale_0 @ 0x55b51182ffc0] w:1280 h:720 flags:'bilinear' interl:0
[Parsed_scale_2 @ 0x55b511905f80] w:1280 h:720 flags:'bilinear' interl:0
Stream mapping:
  Stream #0:0 (h264) -> scale
  Stream #0:1 (aac) -> concat:in0:a0
  Stream #1:0 (aac) -> concat:in1:a0
  Stream #1:1 (h264) -> scale
  concat:out:v0 -> Stream #0:0 (libx264)
  concat:out:a0 -> Stream #0:1 (aac)
Press [q] to stop, [?] for help
[h264 @ 0x55b5118a9d80] Reinit context to 848x480, pix_fmt: yuv420p
[h264 @ 0x55b511c612c0] Reinit context to 1280x720, pix_fmt: yuv420p
[Parsed_scale_0 @ 0x55b5127af880] w:1280 h:720 flags:'bilinear' interl:0
[Parsed_scale_2 @ 0x55b5127b7a00] w:1280 h:720 flags:'bilinear' interl:0
[graph 0 input from stream 0:0 @ 0x55b5127bac40] w:848 h:478 pixfmt:yuv420p tb:1/30000 fr:25/1 sar:0/1 sws_param:flags=2
[graph 0 input from stream 1:1 @ 0x55b5127bbc80] w:1280 h:720 pixfmt:yuv420p tb:1/25000 fr:25/1 sar:1/1 sws_param:flags=2
[graph_0_in_0_1 @ 0x55b5127bcc40] tb:1/44100 samplefmt:fltp samplerate:44100 chlayout:0x3
[graph_0_in_1_0 @ 0x55b5127bdd80] tb:1/44100 samplefmt:fltp samplerate:44100 chlayout:0x3
[Parsed_scale_0 @ 0x55b5127af880] w:848 h:478 fmt:yuv420p sar:0/1 -> w:1280 h:720 fmt:yuv420p sar:0/1 flags:0x2
[Parsed_setsar_1 @ 0x55b5127b7640] w:1280 h:720 sar:0/1 dar:16/9 -> sar:1/1 dar:16/9
[Parsed_scale_2 @ 0x55b5127b7a00] w:1280 h:720 fmt:yuv420p sar:1/1 -> w:1280 h:720 fmt:yuv420p sar:1/1 flags:0x2
[Parsed_setsar_3 @ 0x55b5127b7e80] w:1280 h:720 sar:1/1 dar:16/9 -> sar:1/1 dar:16/9
[libx264 @ 0x55b511905a40] using SAR=1/1
[libx264 @ 0x55b511905a40] using cpu capabilities: MMX2 SSE2Fast SSSE3 SSE4.2 AVX FMA3 BMI2 AVX2
[libx264 @ 0x55b511905a40] profile High, level 3.1
[libx264 @ 0x55b511905a40] 264 - core 155 r2917 0a84d98 - H.264/MPEG-4 AVC codec - Copyleft 2003-2018 - http://www.videolan.org/x264.html - options: cabac=1 ref=1 deblock=1:0:0 analyse=0x3:0x113 me=hex subme=2 psy=1 psy_rd=1.00:0.00 mixed_ref=0 me_range=16 chroma_me=1 trellis=0 8x8dct=1 cqm=0 deadzone=21,11 fast_pskip=1 chroma_qp_offset=0 threads=22 lookahead_threads=5 sliced_threads=0 nr=0 decimate=1 interlaced=0 bluray_compat=0 constrained_intra=0 bframes=3 b_pyramid=2 b_adapt=1 b_bias=0 direct=1 weightb=1 open_gop=0 weightp=1 keyint=250 keyint_min=25 scenecut=40 intra_refresh=0 rc_lookahead=10 rc=crf mbtree=1 crf=18.0 qcomp=0.60 qpmin=0 qpmax=69 qpstep=4 ip_ratio=1.40 aq=1:1.00
Output #0, mp4, to '/var/www/html/project/media/video/watermarks/WhatsApp_Video_2025-03-29_at_18.55.51.mp4':
  Metadata:
    major_brand     : mp42
    minor_version   : 0
    compatible_brands: mp42isom
    encoder         : Lavf58.29.100
    Stream #0:0: Video: h264 (libx264), 1 reference frame (avc1 / 0x31637661), yuv420p(progressive), 1280x720 [SAR 1:1 DAR 16:9], q=-1--1, 25 fps, 12800 tbn, 25 tbc (default)
    Metadata:
      encoder         : Lavc58.54.100 libx264
    Side data:
      cpb: bitrate max/min/avg: 0/0/0 buffer size: 0 vbv_delay: -1
    Stream #0:1: Audio: aac (LC) (mp4a / 0x6134706D), 44100 Hz, stereo, fltp, delay 1024, 128 kb/s (default)
    Metadata:
      encoder         : Lavc58.54.100 aac
Past duration 0.880821 too large
[Parsed_concat_4 @ 0x55b5127b8c80] EOF on in0:v0, 1 streams left in segment.
[Parsed_concat_4 @ 0x55b5127b8c80] EOF on in0:a0, 0 streams left in segment.
[Parsed_concat_4 @ 0x55b5127b8c80] Segment finished at pts=15244675
Past duration 0.883110 too large
    Last message repeated 33 times
[Parsed_concat_4 @ 0x55b5127b8c80] EOF on in1:a0, 1 streams left in segment.
Past duration 0.883110 too large
    Last message repeated 15 times
[Parsed_concat_4 @ 0x55b5127b8c80] EOF on in1:v0, 0 streams left in segment.
[Parsed_concat_4 @ 0x55b5127b8c80] Segment finished at pts=17263360
No more output streams to write to, finishing.
frame=  432 fps= 73 q=-1.0 Lsize=    4524kB time=00:00:17.27 bitrate=2145.4kbits/s speed= 2.9x    
[AVIOContext @ 0x55b5117f6c00] Statistics: 0 seeks, 12 writeouts
video:4242kB audio:267kB subtitle:0kB other streams:0kB global headers:0kB muxing overhead: 0.337887%
Input file #0 (/var/www/html/project/media/video/original/WhatsApp_Video_2025-03-29_at_18.55.51.mp4):
  Input stream #0:0 (video): 382 packets read (2781888 bytes); 382 frames decoded; 
  Input stream #0:1 (audio): 655 packets read (238932 bytes); 655 frames decoded (670720 samples); 
  Total: 1037 packets (3020820 bytes) demuxed
Input file #1 (/var/www/html/project/static/images/templates/Codino.mp4):
  Input stream #1:0 (audio): 89 packets read (26579 bytes); 87 frames decoded (89024 samples); 
  Input stream #1:1 (video): 50 packets read (203365 bytes); 50 frames decoded; 
  Total: 139 packets (229944 bytes) demuxed
Output file #0 (/var/www/html/project/media/video/watermarks/WhatsApp_Video_2025-03-29_at_18.55.51.mp4):
  Output stream #0:0 (video): 432 frames encoded; 432 packets muxed (4343929 bytes); 
  Output stream #0:1 (audio): 744 frames encoded (761314 samples); 745 packets muxed (273293 bytes); 
  Total: 1177 packets (4617222 bytes) muxed
[AVIOContext @ 0x55b51182ad40] Statistics: 2 seeks, 21 writeouts
[libx264 @ 0x55b511905a40] frame I:3     Avg QP:11.21  size: 29379
[libx264 @ 0x55b511905a40] frame P:158   Avg QP:15.63  size: 14677
[libx264 @ 0x55b511905a40] frame B:271   Avg QP:17.48  size:  7144
[libx264 @ 0x55b511905a40] consecutive B-frames: 10.9% 13.4%  9.0% 66.7%
[libx264 @ 0x55b511905a40] mb I  I16..4: 46.2% 34.6% 19.3%
[libx264 @ 0x55b511905a40] mb P  I16..4: 11.0% 19.6%  2.8%  P16..4: 22.0% 11.6%  4.9%  0.0%  0.0%    skip:28.2%
[libx264 @ 0x55b511905a40] mb B  I16..4:  3.2%  2.7%  0.3%  B16..8: 26.3% 10.4%  1.1%  direct:10.3%  skip:45.7%  L0:46.5% L1:45.7% BI: 7.8%
[libx264 @ 0x55b511905a40] 8x8 transform intra:54.2% inter:23.7%
[libx264 @ 0x55b511905a40] coded y,uvDC,uvAC intra: 38.7% 48.8% 8.2% inter: 6.4% 22.3% 0.3%
[libx264 @ 0x55b511905a40] i16 v,h,dc,p: 38% 29% 11% 22%
[libx264 @ 0x55b511905a40] i8 v,h,dc,ddl,ddr,vr,hd,vl,hu: 20% 30% 18%  3%  8%  5%  8%  3%  3%
[libx264 @ 0x55b511905a40] i4 v,h,dc,ddl,ddr,vr,hd,vl,hu: 26% 22% 17%  5%  9%  6%  7%  4%  4%
[libx264 @ 0x55b511905a40] i8c dc,h,v,p: 54% 22% 19%  5%
[libx264 @ 0x55b511905a40] Weighted P-Frames: Y:3.8% UV:0.0%
[libx264 @ 0x55b511905a40] kb/s:2010.76
[aac @ 0x55b5117fe100] Qavg: 3133.207
[AVIOContext @ 0x55b5117ffb00] Statistics: 3027008 bytes read, 0 seeks
[AVIOContext @ 0x55b511976ec0] Statistics: 1530915 bytes read, 42 seeks
